<?xml version="1.0" encoding="iso-8859-1"?>
<!-- Generator: Adobe Illustrator 19.0.0, SVG Export Plug-In . SVG Version: 6.00 Build 0)  -->
<svg version="1.1" id="Capa_1" xmlns="http://www.w3.org/2000/svg" xmlns:xlink="http://www.w3.org/1999/xlink" x="0px" y="0px"
	 viewBox="0 0 512 512" style="enable-background:new 0 0 512 512;" xml:space="preserve">
<g>
	<g>
		<path d="M460.869,307.67c-1.86-1.86-4.44-2.93-7.07-2.93s-5.21,1.07-7.07,2.93c-1.86,1.87-2.93,4.44-2.93,7.07
			c0,2.64,1.07,5.21,2.93,7.07c1.86,1.87,4.44,2.94,7.07,2.94s5.21-1.07,7.07-2.94c1.86-1.85,2.93-4.43,2.93-7.07
			C463.799,312.11,462.729,309.53,460.869,307.67z"/>
	</g>
</g>
<g>
	<g>
		<path d="M481.799,44H417.31c-4.634-9.051-14.051-15.265-24.899-15.265h-45.186C342.806,12.208,327.702,0,309.799,0
			c-17.902,0-33.006,12.208-37.426,28.735h-45.186c-10.848,0-20.265,6.214-24.899,15.265h-64.489c-16.542,0-30,13.458-30,30v18
			c0,5.523,4.477,10,10,10s10-4.477,10-10V74c0-5.514,4.486-10,10-10h61.428v24h-33.442c-5.523,0-10,4.477-10,10v28.667h-35.554
			c-5.523,0-10,4.477-10,10v4.687c0,7.713-4.703,14.636-11.991,17.642l-0.406,0.168c-7.332,3.055-15.597,1.504-21.058-3.957
			l-3.312-3.312c-3.906-3.904-10.237-3.904-14.142,0L25.427,185.79c-3.905,3.905-3.905,10.237,0,14.142l3.382,3.382
			c5.445,5.444,7,13.688,3.964,20.999l-0.162,0.391c-2.996,7.287-9.915,11.995-17.627,11.995H10.2c-5.523,0-10,4.477-10,10v47.935
			c0,5.523,4.477,10,10,10h4.867c7.689,0,14.591,4.69,17.594,11.975l0.154,0.371c3.042,7.306,1.493,15.542-3.947,20.981
			l-3.439,3.439c-3.905,3.905-3.905,10.237,0,14.142l33.895,33.896c1.875,1.875,4.419,2.929,7.071,2.929
			c2.652,0,5.196-1.054,7.071-2.929l3.44-3.439c5.438-5.439,13.673-6.988,21.068-3.911l0.309,0.128
			c4.231,1.744,7.579,4.821,9.645,8.602c-0.076,0.495-0.127,0.999-0.127,1.515V482c0,16.542,13.458,30,30,30h344
			c16.542,0,30-13.458,30-30V74C511.799,57.458,498.342,44,481.799,44z M219.229,56.694c0-4.389,3.571-7.959,7.959-7.959h53.877
			c5.523,0,10-4.477,10-10c0-10.331,8.405-18.735,18.735-18.735c10.33,0,18.735,8.404,18.735,18.735c0,5.523,4.477,10,10,10h53.877
			c4.389,0,7.959,3.57,7.959,7.959V88H219.229V56.694z M105.899,363.723l-0.325-0.135c-13.191-5.492-27.959-3.521-38.938,4.877
			l-20.233-20.234c8.398-10.979,10.369-25.747,4.874-38.943l-0.134-0.325c-5.424-13.16-17.246-22.173-30.942-23.99v-28.622
			c13.689-1.844,25.496-10.872,30.915-24.051l0.13-0.313c5.469-13.167,3.507-27.905-4.85-38.877l20.258-20.258
			c10.986,8.326,25.714,10.261,38.867,4.777l0.359-0.148c13.118-5.411,22.12-17.173,23.993-30.814h28.671
			c1.901,13.635,10.917,25.381,24.03,30.778l0.343,0.142c13.141,5.462,27.841,3.54,38.825-4.743l20.285,20.284
			c-8.284,10.982-10.207,25.682-4.749,38.811l0.14,0.339c5.404,13.129,17.15,22.147,30.785,24.048v28.671
			c-13.641,1.872-25.403,10.874-30.809,23.982l-0.148,0.357c-5.487,13.162-3.555,27.891,4.772,38.879l-20.258,20.258
			c-10.972-8.357-25.71-10.317-38.88-4.848l-0.321,0.133c-13.168,5.415-22.196,17.22-24.04,30.91h-28.622
			C128.08,380.971,119.066,369.15,105.899,363.723z M491.799,482c0,5.514-4.486,10-10,10h-344c-5.514,0-10-4.486-10-10v-67.333
			h40.367c5.523,0,10-4.477,10-10v-4.786c0-7.711,4.708-14.63,12.029-17.641l0.354-0.146c7.312-3.037,15.557-1.482,21.001,3.962
			l3.381,3.382c1.875,1.875,4.419,2.929,7.071,2.929s5.196-1.054,7.071-2.929l33.895-33.895c1.875-1.875,2.929-4.419,2.929-7.072
			c0-2.653-1.054-5.196-2.929-7.071l-3.312-3.311c-5.459-5.46-7.013-13.725-3.951-21.069l0.168-0.405
			c3.001-7.277,9.924-11.98,17.637-11.98h4.687c5.523,0,10-4.477,10-10V246.7c0-5.523-4.477-10-10-10h-4.596
			c-7.74,0-14.686-4.724-17.689-12.021l-0.167-0.404c-3.054-7.346-1.494-15.625,3.975-21.093l3.248-3.249
			c1.875-1.875,2.929-4.418,2.929-7.071c0-2.653-1.054-5.196-2.929-7.071l-33.896-33.895c-3.905-3.905-10.237-3.904-14.142,0
			l-3.248,3.248c-5.469,5.469-13.75,7.028-21.062,3.989l-0.421-0.175c-7.311-3.009-12.035-9.954-12.035-17.694v-4.597
			c0-2.468-0.899-4.724-2.381-6.468V108h268.014v162.244c0,5.523,4.477,10,10,10s10-4.477,10-10V98c0-5.523-4.477-10-10-10h-33.428
			V64h61.43c5.514,0,10,4.486,10,10V482z"/>
	</g>
</g>
<g>
	<g>
		<path d="M309.346,54h-0.138c-5.523,0-10,4.477-10,10s4.477,10,10,10h0.138c5.523,0,10-4.477,10-10S314.869,54,309.346,54z"/>
	</g>
</g>
<g>
	<g>
		<path d="M182.276,244.29c-3.905-3.905-10.237-3.905-14.142,0l-31.542,31.542l-16.327-16.327c-3.905-3.905-10.237-3.905-14.143,0
			c-3.905,3.905-3.905,10.237,0,14.143l23.398,23.398c1.953,1.953,4.512,2.929,7.071,2.929c2.559,0,5.119-0.977,7.071-2.929
			l38.613-38.613C186.182,254.526,186.182,248.195,182.276,244.29z"/>
	</g>
</g>
<g>
	<g>
		<path d="M453.799,347.494c-5.523,0-10,4.477-10,10v31.551h-43.728c-5.523,0-10,4.477-10,10v43.728H165.786
			c-5.523,0-10,4.477-10,10s4.477,10,10,10h234.286c2.652,0,5.196-1.054,7.071-2.929l53.728-53.728
			c1.875-1.875,2.929-4.419,2.929-7.071v-41.551C463.799,351.971,459.322,347.494,453.799,347.494z M410.072,428.63v-19.585h19.585
			L410.072,428.63z"/>
	</g>
</g>
<g>
	<g>
		<path d="M144.198,189.479c-44.768,0-81.188,36.42-81.188,81.188s36.42,81.188,81.188,81.188s81.188-36.421,81.188-81.188
			C225.387,225.9,188.966,189.479,144.198,189.479z M144.2,331.855c-33.739,0-61.188-27.45-61.188-61.188
			c0-33.739,27.449-61.188,61.188-61.188s61.188,27.449,61.188,61.188S177.939,331.855,144.2,331.855z"/>
	</g>
</g>
<g>
	<g>
		<path d="M410.371,155h-49.572c-5.523,0-10,4.477-10,10s4.477,10,10,10h49.572c5.523,0,10-4.477,10-10S415.895,155,410.371,155z"/>
	</g>
</g>
<g>
	<g>
		<path d="M326.869,157.93c-1.86-1.86-4.44-2.93-7.07-2.93s-5.21,1.07-7.07,2.93c-1.86,1.86-2.93,4.44-2.93,7.07
			s1.07,5.21,2.93,7.07c1.86,1.86,4.44,2.93,7.07,2.93c2.63,0,5.21-1.07,7.07-2.93c1.86-1.86,2.93-4.44,2.93-7.07
			S328.729,159.79,326.869,157.93z"/>
	</g>
</g>
<g>
	<g>
		<path d="M410.371,215h-90.572c-5.523,0-10,4.477-10,10s4.477,10,10,10h90.572c5.523,0,10-4.477,10-10S415.895,215,410.371,215z"/>
	</g>
</g>
<g>
	<g>
		<path d="M410.371,275h-90.572c-5.523,0-10,4.477-10,10s4.477,10,10,10h90.572c5.523,0,10-4.477,10-10S415.895,275,410.371,275z"/>
	</g>
</g>
<g>
	<g>
		<path d="M410.371,335h-90.572c-5.523,0-10,4.477-10,10s4.477,10,10,10h90.572c5.523,0,10-4.477,10-10S415.895,335,410.371,335z"/>
	</g>
</g>
<g>
</g>
<g>
</g>
<g>
</g>
<g>
</g>
<g>
</g>
<g>
</g>
<g>
</g>
<g>
</g>
<g>
</g>
<g>
</g>
<g>
</g>
<g>
</g>
<g>
</g>
<g>
</g>
<g>
</g>
</svg>
