<svg id="Layer" enable-background="new 0 0 64 64" height="512" viewBox="0 0 64 64" width="512" xmlns="http://www.w3.org/2000/svg"><path d="m56 32c0-13.234-10.767-24-24-24-2.405 0-4.78.355-7.071 1.059-1.545-.695-3.232-1.059-4.929-1.059-6.617 0-12 5.383-12 12 0 1.697.364 3.384 1.059 4.929-.704 2.291-1.059 4.666-1.059 7.071 0 13.234 10.766 24 24 24 2.405 0 4.78-.356 7.071-1.059 1.545.695 3.233 1.059 4.929 1.059 6.617 0 12-5.383 12-12 0-1.696-.364-3.383-1.059-4.928.704-2.291 1.059-4.666 1.059-7.072zm-5.002 8.118c.011.022.022.043.033.065.634 1.169.969 2.489.969 3.817 0 4.411-3.589 8-8 8-1.329 0-2.648-.335-3.816-.968-.216-.117-.457-.193-.702-.225-.083-.011-.168-.017-.254-.017-.002 0-.004 0-.004 0-.002 0-.005 0-.007 0h-.001c-.001 0-.001 0-.002 0 0 0-.001 0-.002 0 0 0 0 0-.001 0-.237.001-.465.043-.676.121-2.106.722-4.305 1.089-6.535 1.089-11.028 0-20-8.972-20-20 0-2.241.37-4.451 1.101-6.568.056-.163.091-.337.104-.511.004-.047.006-.095.006-.143 0 0 0 0 0-.001s0-.002 0-.003c0 0 0 0 0-.001 0-.002 0-.004 0-.007 0-.002 0-.002 0-.004-.001-.316-.076-.615-.208-.88-.011-.021-.022-.043-.034-.065-.634-1.168-.969-2.488-.969-3.817 0-4.411 3.589-8 8-8 1.329 0 2.649.335 3.816.968.21.114.444.189.683.222.089.013.18.019.272.02h.004.004s.003 0 .004 0 .001 0 .002 0h.002c.238-.001.466-.043.677-.121 2.108-.722 4.307-1.089 6.536-1.089 11.028 0 20 8.972 20 20 0 2.228-.365 4.423-1.086 6.525-.079.214-.123.445-.124.687v.001.003c0-.001 0 .002 0 .004v.01.004.004c.001.317.076.615.208.88z"/><path d="m32 24c2.168 0 4 1.374 4 3 0 1.104.896 2 2 2s2-.896 2-2c0-3.86-3.589-7-8-7s-8 3.14-8 7 3.589 7 8 7c2.168 0 4 1.374 4 3s-1.832 3-4 3-4-1.374-4-3c0-1.104-.896-2-2-2s-2 .896-2 2c0 3.86 3.589 7 8 7s8-3.14 8-7-3.589-7-8-7c-2.168 0-4-1.374-4-3s1.832-3 4-3z"/></svg>